<svg width="64" height="64" viewBox="0 0 64 64" fill="none" xmlns="http://www.w3.org/2000/svg">
<path d="M24.4664 17.1319C24.1538 16.2731 23.9829 15.3461 23.9829 14.3804C23.9829 9.9361 27.5856 6.33334 32.0299 6.33334C36.4741 6.33334 40.0769 9.9361 40.0769 14.3804C40.0769 15.6822 39.7658 16.9162 39.2143 18.0074C40.0079 18.0623 40.7791 18.4199 41.3413 19.0624C44.3961 22.5537 47.0694 27.5315 47.0694 33.3013C47.0694 37.4263 45.6493 40.4829 43.7303 42.6853L47.375 43.3246C48.8632 43.5856 49.9487 44.878 49.9487 46.3889V52.2222C49.9487 53.0474 49.6209 53.8387 49.0375 54.4221C48.454 55.0056 47.6627 55.3334 46.8376 55.3334L17.2222 55.3333C15.504 55.3333 14.1111 53.9405 14.1111 52.2222V46.3889C14.1111 44.8798 15.1942 43.5883 16.6802 43.3254L19.968 42.7437C18.0228 40.5372 16.579 37.4634 16.579 33.3013C16.579 28.7997 18.3235 24.8794 20.3696 21.8749C21.6556 19.9865 23.1116 18.3833 24.4664 17.1319Z" fill="#F5F5F5"/>
<path d="M33.5555 32.89H30.4444C30.4444 27.1773 32.1771 21.4743 36.0103 17.2997C36.6109 16.4821 36.9658 15.4727 36.9658 14.3804C36.9658 11.6543 34.7559 9.44446 32.0299 9.44446C29.3038 9.44446 27.094 11.6543 27.094 14.3804C27.094 15.7253 27.6319 16.9446 28.5043 17.8349C25.421 20.0329 19.6901 25.9247 19.6901 33.3013C19.6901 40.7456 25.5267 43.7594 28.5885 44.3781L17.2222 46.3889V52.2222L46.8376 52.2222V46.3889L35.2017 44.3482C38.2982 43.6666 43.9583 40.6322 43.9583 33.3013C43.9583 28.5012 41.7222 24.2222 38.9999 21.1111C36.0103 23.4445 33.5555 28.8889 33.5555 32.89Z" fill="#292929"/>
</svg>
