<svg width="64" height="64" viewBox="0 0 64 64" fill="none" xmlns="http://www.w3.org/2000/svg">
<path d="M21.9725 35.9876C21.6014 36.4943 21.1585 37.022 20.6422 37.5648C18.8202 39.4805 16.5857 41.0567 15.1435 41.8807L14.9009 42.0194C13.9316 42.5733 13.3334 43.6041 13.3334 44.7206V52.2222C13.3334 53.9404 14.7263 55.3333 16.4445 55.3333H46.7778C48.496 55.3333 49.8889 53.9404 49.8889 52.2222V44.7206C49.8889 43.6041 49.2907 42.5733 48.3214 42.0194L48.0788 41.8808C46.6366 41.0567 44.4021 39.4805 42.5801 37.5648C42.0638 37.022 41.6209 36.4943 41.2498 35.9876C42.6152 35.6587 43.6297 34.4293 43.6297 32.963V27.8987C43.6297 26.8878 43.1385 25.9399 42.3127 25.357L40.9913 24.4243C41.7537 22.9429 42.1852 21.2618 42.1852 19.4815C42.1852 13.5086 37.3433 8.66666 31.3704 8.66666C25.3976 8.66666 20.5556 13.5086 20.5556 19.4815C20.5556 21.362 21.0368 23.1312 21.8808 24.6715L20.9096 25.357C20.0838 25.9399 19.5926 26.8878 19.5926 27.8987V32.963C19.5926 34.4293 20.6071 35.6587 21.9725 35.9876Z" fill="#F5F5F5"/>
<path d="M39.0741 19.4815C39.0741 21.7158 38.1229 23.7279 36.6034 25.1351L40.5185 27.8987V32.963H36.6858C36.8706 35.3104 38.3768 37.6597 40.3258 39.7089C42.3941 41.8836 44.8826 43.6376 46.5352 44.5819L46.7778 44.7206V52.2222H16.4445V44.7206L16.6871 44.5819C18.3397 43.6376 20.8281 41.8836 22.8965 39.7089C24.8455 37.6597 26.3516 35.3104 26.5365 32.963H22.7037V27.8987L26.35 25.3248C24.7071 23.912 23.6667 21.8183 23.6667 19.4815C23.6667 15.2268 27.1157 11.7778 31.3704 11.7778C35.625 11.7778 39.0741 15.2268 39.0741 19.4815Z" fill="#292929"/>
</svg>
