<svg width="64" height="64" viewBox="0 0 64 64" fill="none" xmlns="http://www.w3.org/2000/svg">
<path d="M24.2223 7.88889C24.7889 7.88889 25.3202 8.04039 25.7778 8.3051C26.2354 8.04039 26.7667 7.88889 27.3334 7.88889H35.8889C36.4556 7.88889 36.9869 8.04039 37.4445 8.3051C37.9021 8.04039 38.4334 7.88889 39 7.88889H46.7778C48.496 7.88889 49.8889 9.28178 49.8889 11V18C49.8889 18.9792 49.4279 19.9013 48.6445 20.4889L43.8439 24.0893L45.2032 36.3231C45.5631 39.562 47.0706 41.2052 49.2667 44.1333C49.6706 44.6719 49.8889 45.3268 49.8889 46V52.2222C49.8889 53.9404 48.496 55.3333 46.7778 55.3333H16.4445C14.7263 55.3333 13.3334 53.9404 13.3334 52.2222V46C13.3334 45.3268 13.5517 44.6718 13.9556 44.1333C16.1517 41.2052 17.6592 39.562 18.0191 36.3231L19.3784 24.0893L14.5778 20.4889C13.7944 19.9013 13.3334 18.9792 13.3334 18V11C13.3334 9.28178 14.7263 7.88889 16.4445 7.88889H24.2223Z" fill="#F5F5F5"/>
<path d="M16.4445 11H24.2222V15.6667H27.3333V11H35.8889V15.6667H39V11H46.7778V18L40.5556 22.6667L42.1111 36.6667H21.1111L22.6667 22.6667L16.4445 18V11Z" fill="#292929"/>
<path d="M21.1111 39.7778H42.1111L46.7778 46V52.2222H16.4445V46L21.1111 39.7778Z" fill="#292929"/>
</svg>
