<svg width="64" height="64" viewBox="0 0 64 64" fill="none" xmlns="http://www.w3.org/2000/svg">
<path fill-rule="evenodd" clip-rule="evenodd" d="M27.3348 7.01394C27.3873 5.33437 28.764 4 30.4444 4H35.1111C36.7915 4 38.1682 5.33437 38.2207 7.01394L38.248 7.88889H39.7778C41.496 7.88889 42.8889 9.28178 42.8889 11V12.8869C46.2801 12.1195 49.9405 12.6321 53.0472 15.2211C59.5014 20.5995 58.9075 31.8741 51.2478 38.0409C49.3993 39.5291 47.9472 40.7629 46.9472 42.0341C46.719 42.3241 46.5236 42.6047 46.3591 42.8794L49.5121 43.3058C51.0551 43.5145 52.2062 44.8318 52.2062 46.3889V52.2222C52.2062 53.9404 50.8133 55.3333 49.0951 55.3333H16.4604C14.7422 55.3333 13.3493 53.9404 13.3493 52.2222V46.3889C13.3493 44.8318 14.5004 43.5145 16.0434 43.3058L19.1964 42.8794C19.0319 42.6047 18.8365 42.3241 18.6083 42.0341C17.6084 40.7629 16.1562 39.5291 14.3077 38.0409C6.64802 31.8741 6.05416 20.5995 12.5083 15.2211C15.6151 12.6321 19.2754 12.1195 22.6666 12.8869V11C22.6666 9.28178 24.0595 7.88889 25.7778 7.88889H27.3075L27.3348 7.01394Z" fill="#292929"/>
<path fill-rule="evenodd" clip-rule="evenodd" d="M30.4445 7.11111H35.1111L35.2326 11H39.7778V15.6667H35.3785L35.5922 20.9501C35.6775 20.8496 35.7653 20.7511 35.8558 20.6549C40.1049 16.1388 46.405 13.7356 51.0556 17.6111C55.7222 21.5 55.7222 30.4444 49.2968 35.6176C45.657 38.548 42.3968 41.3729 42.5575 45.5047L49.0951 46.3889V52.2222H16.4604V46.3889L22.9981 45.5047C23.1588 41.3729 19.8986 38.548 16.2588 35.6176C9.83335 30.4444 9.83335 21.5 14.5 17.6111C19.1506 13.7356 25.4506 16.1388 29.6998 20.6549C29.7903 20.7511 29.8781 20.8496 29.9634 20.9501L30.1771 15.6667H25.7778V11H30.3229L30.4445 7.11111ZM26.0485 24.9791C28.9003 29.6504 29.2778 35.1111 29.2778 37.4858C27.8483 37.4884 22.4597 35.1177 19.6066 31.2258C17.5526 28.424 17.0171 24.2669 18.7778 22.653C20.5385 21.0392 24.2661 22.0596 26.0485 24.9791ZM39.5071 24.9791C36.6552 29.6504 36.2778 35.1111 36.2778 37.4858C37.7072 37.4884 43.0959 35.1177 45.949 31.2258C48.0029 28.424 48.5385 24.2669 46.7778 22.653C45.0171 21.0392 41.2895 22.0596 39.5071 24.9791Z" fill="#F5F5F5"/>
</svg>
