<svg width="64" height="64" viewBox="0 0 64 64" fill="none" xmlns="http://www.w3.org/2000/svg">
<path d="M27.0921 4.3943C28.1162 4.27915 29.1309 4.67857 29.8016 5.46092L36.149 12.8642C43.4383 14.6655 47.6618 20.1543 49.9977 27.0064C52.4046 34.0669 53 43.0304 53 52.2222C53 53.9404 51.6071 55.3333 49.8889 55.3333H20.8816C19.23 55.3333 17.8662 54.0427 17.7753 52.3935C17.6941 50.9218 18.0327 48.3682 19.0645 45.76L19.0835 45.7122C16.1534 47.285 12.9016 46.9083 10.4876 45.1896C7.55392 43.1008 5.92272 39.012 7.78638 34.974C9.13029 32.0622 10.5787 30.5203 11.6745 29.3542C12.698 28.2649 13.1245 27.7858 13.4263 26.5788C15.2558 19.2607 19.0196 15.045 23.0617 13.1211C23.0032 12.2874 23.0508 11.4841 23.1531 10.7549C23.4076 8.93972 24.0413 7.26229 24.6872 6.03602C25.1675 5.12424 26.0681 4.50946 27.0921 4.3943Z" fill="#292929"/>
<path fill-rule="evenodd" clip-rule="evenodd" d="M34.4661 15.6811L27.4398 7.48593C26.4227 9.41684 25.4367 12.8247 26.8543 15.2849C26.1662 15.3462 25.5087 15.4626 25 15.6667C21.755 16.9689 18.1945 20.3333 16.4445 27.3333C15.9378 29.3603 15.0257 30.3309 13.9417 31.4845C12.9193 32.5728 11.7438 33.8238 10.6111 36.2778C8.27782 41.3333 14.575 46.3889 19.1667 41.7971C21.7482 39.2156 24.0048 38.1499 25.8993 37.2551C28.626 35.9673 30.6029 35.0337 31.7195 30.4444C32.2508 32.5851 32.0383 37.6371 26.9381 40.7197C21.8379 43.8022 20.7754 50.2956 20.8816 52.2222H49.8889C49.8889 33.9314 47.4673 18.1282 34.4661 15.6811Z" fill="#F5F5F5"/>
<ellipse cx="25.7778" cy="25" rx="2.33333" ry="2.33333" fill="#292929"/>
</svg>
