<svg width="64" height="64" viewBox="0 0 64 64" fill="none" xmlns="http://www.w3.org/2000/svg">
<path d="M18.0001 11.7778C18.0001 12.5457 18.1236 13.2846 18.3519 13.9756L16.8162 14.696C15.5431 13.3764 13.7563 12.5556 11.7778 12.5556C7.91184 12.5556 4.77783 15.6896 4.77783 19.5556C4.77783 23.0017 7.26812 25.8662 10.5473 26.4478L14.2356 39.0933C14.3126 39.3573 14.4242 39.6099 14.5676 39.8445L16.6934 43.323L16.6803 43.3253C15.1942 43.5882 14.1112 44.8797 14.1112 46.3889V52.2222C14.1112 53.9404 15.5041 55.3333 17.2223 55.3333L46.8377 55.3333C47.6628 55.3333 48.4541 55.0055 49.0375 54.4221C49.621 53.8387 49.9488 53.0473 49.9488 52.2222V46.3889C49.9488 44.878 48.8633 43.5855 47.3751 43.3245L47.3125 43.3136L49.4325 39.8445C49.5759 39.6099 49.6875 39.3573 49.7645 39.0933L53.4528 26.4478C56.732 25.8662 59.2223 23.0017 59.2223 19.5556C59.2223 15.6896 56.0883 12.5556 52.2223 12.5556C50.2413 12.5556 48.4525 13.3784 47.1791 14.701L45.6462 13.9819C45.8758 13.289 46.0001 12.548 46.0001 11.7778C46.0001 7.91178 42.866 4.77777 39.0001 4.77777C35.1341 4.77777 32.0001 7.91178 32.0001 11.7778C32.0001 7.91178 28.866 4.77777 25.0001 4.77777C21.1341 4.77777 18.0001 7.91178 18.0001 11.7778Z" fill="#292929"/>
<path d="M26.396 15.4086C27.8541 14.8476 28.8889 13.4335 28.8889 11.7778C28.8889 9.63 27.1478 7.88889 25 7.88889C22.8523 7.88889 21.1111 9.63 21.1111 11.7778C21.1111 13.7625 22.598 15.4 24.5186 15.6372L22.7844 29.6667L14.424 22.4054C15.1884 21.6952 15.6667 20.6813 15.6667 19.5556C15.6667 17.4078 13.9256 15.6667 11.7778 15.6667C9.63003 15.6667 7.88892 17.4078 7.88892 19.5556C7.88892 21.7033 9.63003 23.4445 11.7778 23.4445C12.1559 23.4445 12.5214 23.3905 12.867 23.2899L17.2222 38.2222L21.7261 45.5921L17.2222 46.3889V52.2222L46.8376 52.2222V46.3889L42.276 45.5888L46.7778 38.2222L51.1331 23.2899C51.4787 23.3905 51.8442 23.4445 52.2223 23.4445C54.37 23.4445 56.1111 21.7033 56.1111 19.5556C56.1111 17.4078 54.37 15.6667 52.2223 15.6667C50.0745 15.6667 48.3334 17.4078 48.3334 19.5556C48.3334 20.6813 48.8117 21.6952 49.5761 22.4054L41.2157 29.6667L39.4814 15.6372C41.402 15.4 42.8889 13.7625 42.8889 11.7778C42.8889 9.63 41.1478 7.88889 39 7.88889C36.8523 7.88889 35.1111 9.63 35.1111 11.7778C35.1111 13.4335 36.1459 14.8476 37.6041 15.4086L32 28.1111L26.396 15.4086Z" fill="#F5F5F5"/>
</svg>
